<svg width="242" height="156" fill="none" xmlns="http://www.w3.org/2000/svg"><g filter="url(#filter0_d)"><path d="M81.54 10.134H55.698c-3.566 0-6.457 2.787-6.457 6.224v24.909c0 3.437 2.89 6.224 6.457 6.224H81.54c3.566 0 6.457-2.787 6.457-6.224V16.358c0-3.437-2.89-6.224-6.457-6.224z" fill="#56CCF2"/></g><path d="M78.316 27.507h-3.929l3.053-2.963-1.328-1.298-4.39 4.26h-1.885v-1.828l4.39-4.26-1.338-1.29-3.052 2.962v-3.812h-1.884v3.813L64.9 20.127l-1.337 1.29 4.39 4.26v1.829h-1.884l-4.39-4.261-1.329 1.298 3.053 2.963h-3.93v1.828h3.93l-3.053 2.963 1.328 1.298 4.39-4.26h1.885v1.828l-4.39 4.26 1.337 1.29 3.053-2.962v3.813h1.884v-3.813l3.052 2.962 1.338-1.29-4.39-4.26v-1.829h1.884l4.39 4.261 1.329-1.298-3.053-2.963h3.929v-1.828z" fill="#fff"/><g filter="url(#filter1_d)"><path d="M215.189 98.311h-25.843c-3.566 0-6.457 2.787-6.457 6.224v24.909c0 3.437 2.891 6.224 6.457 6.224h25.843c3.566 0 6.457-2.787 6.457-6.224v-24.909c0-3.437-2.891-6.224-6.457-6.224z" fill="#F2C94C"/></g><path d="M211.152 113.855c0-4.572-3.768-8.229-8.478-8.229-4.711 0-8.479 3.657-8.479 8.229 0 2.834 1.507 5.395 3.768 6.857v2.286c0 1.189.754 2.195 1.884 2.56v.183c0 1.555 1.225 2.743 2.827 2.743 1.601 0 2.826-1.188 2.826-2.743v-.183c1.13-.365 1.884-1.371 1.884-2.56v-2.286c2.261-1.462 3.768-4.023 3.768-6.857zm-15.073 0c0-3.566 2.92-6.4 6.595-6.4 3.674 0 6.594 2.834 6.594 6.4 0 3.2-2.449 5.852-5.652 6.309v-2.286l1.601-1.554a.866.866 0 000-1.28.93.93 0 00-1.319 0l-1.224 1.188-1.225-1.188a.93.93 0 00-1.319 0 .866.866 0 000 1.28l1.601 1.554v2.286c-3.203-.457-5.652-3.109-5.652-6.309zm6.595 12.801c-.566 0-.943-.366-.943-.915h1.885c0 .549-.377.915-.942.915zm2.826-3.658c0 .549-.377.915-.942.915h-3.769c-.565 0-.942-.366-.942-.915v-1.371c.848.274 1.79.457 2.827.457a9.135 9.135 0 002.826-.457v1.371z" fill="#fff"/><g filter="url(#filter2_d)"><path d="M42.784 98.311H16.94c-3.566 0-6.457 2.787-6.457 6.224v24.909c0 3.437 2.891 6.224 6.457 6.224h25.843c3.566 0 6.457-2.787 6.457-6.224v-24.909c0-3.437-2.891-6.224-6.457-6.224z" fill="#F58A8A"/></g><path d="M35.92 113.855h-.941v-1.829c0-2.523-2.11-4.572-4.71-4.572s-4.711 2.049-4.711 4.572v1.829h-.942c-1.037 0-1.885.823-1.885 1.829v9.143c0 1.006.848 1.829 1.885 1.829H35.92c1.036 0 1.884-.823 1.884-1.829v-9.143c0-1.006-.848-1.829-1.884-1.829zm-5.652 8.229c-1.036 0-1.884-.823-1.884-1.829s.848-1.828 1.884-1.828c1.037 0 1.885.822 1.885 1.828 0 1.006-.848 1.829-1.885 1.829zm2.92-8.229h-5.84v-1.829c0-1.563 1.31-2.834 2.92-2.834 1.611 0 2.92 1.271 2.92 2.834v1.829z" fill="#fff"/><g filter="url(#filter3_d)"><path d="M172.794 10.134h-25.842c-3.566 0-6.457 2.787-6.457 6.224v24.909c0 3.437 2.891 6.224 6.457 6.224h25.842c3.566 0 6.457-2.787 6.457-6.224V16.358c0-3.437-2.891-6.224-6.457-6.224z" fill="#6FCF97"/></g><path d="M165.282 23.755h-15.386v9.332h15.386v-9.332zm4.147 1.857l-3.396 1.385v2.887l3.396 1.386h1.232v-5.658h-1.232z" fill="#fff"/><defs><filter id="filter0_d" x="39.241" y=".134" width="68.757" height="67.356" filterUnits="userSpaceOnUse" color-interpolation-filters="sRGB"><feFlood flood-opacity="0" result="BackgroundImageFix"/><feColorMatrix in="SourceAlpha" values="0 0 0 0 0 0 0 0 0 0 0 0 0 0 0 0 0 0 127 0"/><feOffset dx="5" dy="5"/><feGaussianBlur stdDeviation="7.5"/><feColorMatrix values="0 0 0 0 0 0 0 0 0 0 0 0 0 0 0 0 0 0 0.15 0"/><feBlend in2="BackgroundImageFix" result="effect1_dropShadow"/><feBlend in="SourceGraphic" in2="effect1_dropShadow" result="shape"/></filter><filter id="filter1_d" x="172.889" y="88.311" width="68.757" height="67.356" filterUnits="userSpaceOnUse" color-interpolation-filters="sRGB"><feFlood flood-opacity="0" result="BackgroundImageFix"/><feColorMatrix in="SourceAlpha" values="0 0 0 0 0 0 0 0 0 0 0 0 0 0 0 0 0 0 127 0"/><feOffset dx="5" dy="5"/><feGaussianBlur stdDeviation="7.5"/><feColorMatrix values="0 0 0 0 0 0 0 0 0 0 0 0 0 0 0 0 0 0 0.15 0"/><feBlend in2="BackgroundImageFix" result="effect1_dropShadow"/><feBlend in="SourceGraphic" in2="effect1_dropShadow" result="shape"/></filter><filter id="filter2_d" x=".484" y="88.311" width="68.757" height="67.356" filterUnits="userSpaceOnUse" color-interpolation-filters="sRGB"><feFlood flood-opacity="0" result="BackgroundImageFix"/><feColorMatrix in="SourceAlpha" values="0 0 0 0 0 0 0 0 0 0 0 0 0 0 0 0 0 0 127 0"/><feOffset dx="5" dy="5"/><feGaussianBlur stdDeviation="7.5"/><feColorMatrix values="0 0 0 0 0 0 0 0 0 0 0 0 0 0 0 0 0 0 0.15 0"/><feBlend in2="BackgroundImageFix" result="effect1_dropShadow"/><feBlend in="SourceGraphic" in2="effect1_dropShadow" result="shape"/></filter><filter id="filter3_d" x="130.495" y=".134" width="68.756" height="67.356" filterUnits="userSpaceOnUse" color-interpolation-filters="sRGB"><feFlood flood-opacity="0" result="BackgroundImageFix"/><feColorMatrix in="SourceAlpha" values="0 0 0 0 0 0 0 0 0 0 0 0 0 0 0 0 0 0 127 0"/><feOffset dx="5" dy="5"/><feGaussianBlur stdDeviation="7.5"/><feColorMatrix values="0 0 0 0 0 0 0 0 0 0 0 0 0 0 0 0 0 0 0.15 0"/><feBlend in2="BackgroundImageFix" result="effect1_dropShadow"/><feBlend in="SourceGraphic" in2="effect1_dropShadow" result="shape"/></filter></defs></svg>